<?xml version="1.0" standalone="no"?>
<!DOCTYPE svg PUBLIC "-//W3C//DTD SVG 20010904//EN"
 "http://www.w3.org/TR/2001/REC-SVG-20010904/DTD/svg10.dtd">
<svg version="1.0" xmlns="http://www.w3.org/2000/svg"
 width="192.000000pt" height="149.000000pt" viewBox="0 0 192.000000 149.000000"
 preserveAspectRatio="xMidYMid meet">
<metadata>
Created by potrace 1.10, written by Peter Selinger 2001-2011
</metadata>
<g transform="translate(0.000000,149.000000) scale(0.100000,-0.100000)"
fill="#000000" stroke="none">
<path d="M900 1413 c-18 -108 -14 -220 10 -338 22 -107 39 -169 46 -162 3 2
-7 51 -21 108 -30 125 -31 155 -7 168 10 5 30 30 43 55 20 39 29 46 54 46 42
0 72 18 114 69 l36 44 -30 -15 c-16 -8 -42 -18 -57 -22 -15 -3 -38 -20 -50
-36 -12 -17 -25 -30 -30 -30 -14 0 -9 47 7 60 21 17 30 77 16 107 -18 39 -29
17 -36 -72 -7 -88 -29 -148 -69 -184 l-26 -24 0 84 c1 78 7 124 25 192 4 16 3
27 -3 27 -5 0 -15 -35 -22 -77z m130 19 c0 -15 -5 -34 -10 -42 -7 -11 -10 -2
-10 33 0 30 4 46 10 42 6 -3 10 -18 10 -33z m91 -81 c-10 -18 -72 -54 -80 -46
-8 8 24 38 54 51 38 17 37 17 26 -5z"/>
<path d="M290 801 l0 -141 35 0 35 0 -7 60 c-6 59 -5 60 19 60 31 0 76 -46 84
-87 6 -28 10 -31 50 -35 31 -2 43 0 40 9 -3 6 -8 28 -12 47 -7 39 -53 86 -84
86 -10 0 -22 5 -25 10 -3 6 3 10 15 10 33 0 80 53 80 89 0 28 -3 31 -29 31
-24 0 -31 -5 -36 -30 -8 -36 -48 -70 -82 -70 -23 0 -25 3 -21 48 3 47 3 47
-29 50 l-33 3 0 -140z m197 88 c0 -24 -2 -27 -10 -14 -5 9 -6 23 -3 31 8 22
13 17 13 -17z m-157 17 c0 -3 -4 -8 -10 -11 -5 -3 -10 -1 -10 4 0 6 5 11 10
11 6 0 10 -2 10 -4z m140 -40 c0 -2 -7 -9 -15 -16 -13 -11 -14 -10 -9 4 5 14
24 23 24 12z m-95 -50 c27 -16 19 -16 -20 0 -10 4 -13 2 -10 -8 3 -7 -1 -22
-9 -33 -13 -18 -13 -18 -12 6 1 13 0 28 -3 34 -3 5 -6 18 -6 27 -1 16 0 16 14
4 9 -7 30 -21 46 -30z m118 -64 c16 -14 19 -53 5 -67 -3 -3 -15 14 -27 39 -12
25 -28 47 -34 50 -7 3 -1 3 13 0 14 -4 33 -13 43 -22z m-172 -29 c-8 -15 -10
-15 -11 -2 0 17 10 32 18 25 2 -3 -1 -13 -7 -23z"/>
<path d="M480 730 c6 -11 13 -20 16 -20 2 0 0 9 -6 20 -6 11 -13 20 -16 20 -2
0 0 -9 6 -20z"/>
<path d="M627 883 c-35 -80 -69 -182 -72 -220 -2 -17 -8 -40 -14 -50 -9 -15
-10 -13 -5 11 5 19 3 27 -3 23 -6 -4 -23 -57 -38 -119 -27 -107 -31 -116 -76
-161 -26 -27 -53 -46 -58 -42 -22 13 -12 67 19 102 30 33 39 63 20 63 -13 0
-50 -41 -50 -55 0 -6 -14 -24 -30 -40 -26 -25 -32 -27 -40 -15 -5 8 -10 25
-10 38 0 30 -15 20 -40 -26 l-19 -37 -1 38 c0 48 -17 45 -47 -9 -27 -46 -28
-42 -8 16 17 49 19 64 6 56 -12 -8 -44 -131 -39 -147 3 -8 18 9 35 39 l30 53
6 -30 c9 -41 22 -39 46 7 17 31 20 33 21 14 0 -28 26 -39 51 -23 17 10 19 8
19 -12 0 -56 45 -61 95 -12 19 20 35 34 35 33 -1 -2 -9 -38 -19 -80 -10 -43
-14 -75 -9 -72 4 3 21 33 37 67 31 69 61 103 61 70 0 -10 6 -28 14 -39 14 -18
16 -18 52 16 28 27 34 30 25 12 -7 -13 -11 -31 -9 -40 2 -10 14 5 30 41 15 31
31 57 35 57 5 0 15 -16 22 -35 13 -36 28 -44 49 -23 9 9 12 8 12 -4 0 -33 23
-31 53 3 20 24 27 28 24 14 -12 -44 -27 -141 -27 -177 0 -54 17 -48 18 7 2 76
32 226 59 289 46 109 62 176 43 176 -16 0 -38 -52 -61 -144 -12 -49 -25 -82
-29 -76 -13 21 -44 6 -73 -38 -15 -23 -32 -42 -38 -42 -5 0 -15 16 -23 35 -17
41 -29 44 -52 13 -14 -20 -15 -20 -9 -3 16 42 17 55 6 55 -6 0 -11 -8 -11 -19
0 -20 -66 -111 -80 -111 -6 0 -10 10 -10 23 0 55 -47 53 -70 -3 -7 -17 -14
-29 -17 -27 -8 8 48 195 79 264 27 59 37 73 56 73 17 0 22 6 22 24 0 34 22 48
72 44 39 -3 44 -6 53 -35 7 -27 14 -33 37 -33 17 0 28 5 28 13 0 22 -40 137
-70 205 -26 55 -32 62 -58 62 -26 0 -32 -6 -55 -57z m45 10 c-3 -16 -7 -22
-10 -15 -4 13 4 42 11 42 2 0 2 -12 -1 -27z m35 -80 c12 -49 10 -53 -30 -53
-27 0 -29 2 -24 28 10 48 27 86 36 76 5 -5 13 -28 18 -51z m33 15 c7 -18 16
-42 20 -53 17 -42 19 -55 8 -61 -6 -4 -9 -3 -6 2 4 5 0 23 -8 39 l-13 30 5
-30 c4 -28 4 -29 -6 -6 -6 13 -8 32 -4 43 3 10 -2 30 -10 43 -9 14 -12 25 -7
25 5 0 14 -15 21 -32z m-102 -3 c-6 -14 -13 -23 -15 -21 -5 5 15 46 22 46 3 0
-1 -11 -7 -25z m-11 -82 c-7 -17 -14 -20 -22 -13 -10 8 -10 16 -2 34 8 17 14
20 23 12 8 -8 8 -17 1 -33z m284 -154 c-5 -13 -10 -19 -10 -12 -1 15 10 45 15
40 3 -2 0 -15 -5 -28z m-101 -214 c-23 -37 -40 -45 -40 -20 0 23 27 72 42 78
22 7 21 -21 -2 -58z"/>
<path d="M846 870 c-3 -38 -9 -101 -12 -140 l-7 -70 37 0 36 0 0 85 c0 47 3
85 8 85 4 0 17 -27 30 -59 30 -77 48 -93 71 -64 10 12 26 47 36 79 17 53 19
56 27 33 5 -13 8 -54 6 -92 l-3 -67 34 0 34 0 -7 125 c-3 68 -9 131 -12 140
-6 16 -50 20 -71 7 -7 -4 -22 -38 -33 -76 -13 -40 -26 -66 -33 -63 -6 2 -20
30 -29 62 -23 73 -33 85 -73 85 l-32 0 -7 -70z m227 33 c-3 -10 -3 -15 2 -11
10 10 37 -11 30 -22 -3 -5 -1 -27 4 -49 5 -24 5 -39 0 -35 -5 3 -9 15 -9 26 0
11 -8 27 -17 34 -15 11 -21 10 -36 -9 -17 -21 -17 -21 -4 13 8 19 17 43 20 53
4 9 9 17 11 17 3 0 3 -8 -1 -17z m-150 -18 c-1 -11 3 -28 9 -40 10 -18 9 -18
-5 -7 -13 11 -19 11 -36 0 -12 -7 -21 -20 -22 -28 0 -11 -2 -12 -6 -2 -3 7 3
22 12 32 13 14 14 23 6 39 -15 27 -15 28 17 26 20 -1 27 -6 25 -20z m-51 -113
c3 -9 1 -26 -3 -37 -6 -15 -8 -11 -8 18 -1 40 4 48 11 19z m93 8 c-8 -14 28
-13 42 1 8 8 13 7 18 -2 5 -7 4 -10 -3 -5 -11 7 -25 -9 -28 -32 -4 -24 -14
-26 -14 -3 0 12 -4 20 -9 17 -10 -7 -23 19 -14 28 10 10 15 7 8 -4z m155 -30
c0 -5 -4 -10 -10 -10 -5 0 -10 5 -10 10 0 6 5 10 10 10 6 0 10 -4 10 -10z m-4
-45 c0 -14 -4 -25 -8 -25 -10 0 -10 13 -2 34 9 23 12 20 10 -9z"/>
<path d="M1239 893 c-23 -53 -79 -212 -79 -225 0 -4 15 -8 34 -8 32 0 35 3 38
33 3 32 3 32 58 32 53 0 55 -1 60 -30 4 -25 10 -30 38 -33 20 -2 32 1 32 9 0
15 -68 205 -86 242 -11 20 -22 27 -45 27 -26 0 -32 -6 -50 -47z m98 -49 c-2
-3 -10 9 -17 26 -7 16 -17 30 -22 30 -5 0 -6 -6 -2 -12 5 -9 2 -9 -9 1 -10 8
-17 9 -17 3 0 -6 6 -15 13 -19 15 -9 37 -65 37 -94 0 -14 -7 -19 -30 -19 -33
0 -35 6 -19 63 7 28 7 42 -1 52 -13 15 -4 39 10 30 5 -3 12 0 16 6 4 8 14 -2
26 -25 11 -21 17 -40 15 -42z m19 -83 c-8 -11 -8 -13 2 -7 8 5 16 -2 22 -20 6
-15 9 -29 6 -31 -2 -3 -7 5 -11 16 -3 12 -11 19 -16 16 -5 -4 -9 -1 -9 5 0 6
-4 8 -10 5 -7 -4 -7 2 -1 18 5 14 8 35 5 48 -4 19 -2 17 9 -6 11 -22 11 -34 3
-44z m-128 -2 c-9 -6 -6 -9 12 -10 23 0 23 -1 5 -9 -28 -12 -55 -13 -37 -1 8
4 13 11 13 15 -1 3 2 18 6 34 7 26 8 27 11 3 2 -13 -2 -28 -10 -32z m-21 -54
c0 -8 -4 -15 -9 -15 -10 0 -11 14 -1 23 9 10 10 9 10 -8z"/>
<path d="M1448 893 c-3 -27 -6 -90 -7 -140 l-2 -93 31 0 c18 0 30 -4 28 -10
-1 -5 -28 -59 -58 -120 l-55 -111 -62 3 c-35 2 -63 0 -63 -4 0 -4 25 -8 55 -8
30 0 55 -3 55 -8 0 -19 -92 -162 -105 -162 -45 0 -63 135 -25 198 20 32 32 36
94 32 18 -1 26 2 22 9 -11 17 -79 13 -105 -5 -50 -35 -67 -146 -33 -214 34
-70 70 -49 143 87 22 40 39 61 47 58 8 -3 29 -5 49 -5 28 0 34 -3 29 -16 -4
-9 -18 -73 -32 -142 -18 -88 -22 -128 -15 -135 8 -8 15 -7 23 1 10 10 10 15
-1 21 -11 7 -8 32 14 140 l28 131 51 1 51 2 -48 10 c-33 7 -46 15 -43 24 3 7
16 60 28 118 l23 105 58 0 59 0 -6 43 c-3 23 -5 47 -6 52 0 6 -8 0 -18 -12
-22 -29 -82 -49 -82 -27 0 17 -17 19 -23 2 -3 -10 -9 -10 -23 -2 -16 9 -19 23
-19 80 0 38 4 86 8 107 l8 37 -35 0 c-33 0 -34 -1 -38 -47z m35 -18 c-3 -9 -8
-14 -10 -11 -3 3 -2 9 2 15 9 16 15 13 8 -4z m10 -177 c-2 -4 2 -5 10 -2 17 6
32 -12 18 -20 -16 -11 -39 5 -44 29 -2 14 -2 27 2 30 7 7 20 -27 14 -37z m148
-11 c-10 -9 -11 -8 -5 6 3 10 9 15 12 12 3 -3 0 -11 -7 -18z m-77 -5 c3 -5 -1
-9 -9 -9 -8 0 -12 4 -9 9 3 4 7 8 9 8 2 0 6 -4 9 -8z m-16 -34 c-3 -7 -15 -61
-29 -120 l-24 -108 -48 0 -48 0 63 120 c34 66 68 120 76 120 8 0 12 -6 10 -12z"/>
<path d="M1830 620 l-12 -50 -73 0 c-41 0 -77 -4 -80 -10 -4 -6 22 -10 69 -10
42 0 76 -3 76 -7 -3 -65 -57 -191 -106 -248 l-24 -28 0 25 c0 14 7 47 15 74 8
27 15 55 15 62 0 17 -20 15 -42 -5 -23 -20 -24 -3 -2 39 21 41 4 62 -26 32
-44 -43 -18 -116 30 -86 24 15 24 11 5 -52 -8 -27 -15 -60 -15 -73 0 -42 40
-25 78 32 29 43 33 46 27 20 -14 -61 -45 -226 -45 -240 0 -8 4 -15 9 -15 4 0
11 26 15 58 4 31 24 136 44 232 l38 175 47 3 c60 4 62 22 2 22 l-44 0 14 45
c7 25 9 47 5 50 -4 3 -13 -18 -20 -45z m-184 -167 c-8 -15 -15 -22 -16 -15 0
17 20 55 27 49 2 -3 -2 -18 -11 -34z"/>
<path d="M1258 623 c7 -3 16 -2 19 1 4 3 -2 6 -13 5 -11 0 -14 -3 -6 -6z"/>
<path d="M426 517 c3 -10 9 -15 12 -12 3 3 0 11 -7 18 -10 9 -11 8 -5 -6z"/>
<path d="M910 460 c0 -5 5 -10 10 -10 6 0 10 5 10 10 0 6 -4 10 -10 10 -5 0
-10 -4 -10 -10z"/>
<path d="M895 389 c-5 -31 -3 -45 8 -56 14 -14 18 -13 45 5 31 23 67 70 59 79
-3 3 -22 -14 -42 -36 -47 -52 -59 -52 -52 -1 7 53 -9 61 -18 9z"/>
<path d="M1025 361 c-3 -5 -2 -12 3 -15 5 -3 9 1 9 9 0 17 -3 19 -12 6z"/>
<path d="M1010 310 c0 -6 32 -10 75 -10 43 0 75 4 75 10 0 6 -32 10 -75 10
-43 0 -75 -4 -75 -10z"/>
<path d="M1342 241 c-11 -7 -11 -9 0 -14 9 -3 15 1 15 9 0 8 -1 14 -1 14 -1 0
-7 -4 -14 -9z"/>
</g>
</svg>
